<svg width="1920" height="1542" viewBox="0 0 1920 1542" fill="none" xmlns="http://www.w3.org/2000/svg">
<g clip-path="url(#clip0_375_395)">
<rect width="1920" height="1542" fill="#121212"/>
<g opacity="0.3">
<g clip-path="url(#clip1_375_395)">
<path d="M1620.03 -244C1620.03 -244 1625.03 400.769 1620.03 405.761C1615.04 410.752 1437.9 587.712 1437.9 587.712L1437.9 913.046L1610.49 1085.47L1610.49 1279.67" stroke="#C9FF58" stroke-miterlimit="10"/>
<path opacity="0.4" d="M1706.33 -244L1706.33 53.202L1652.73 106.29L1652.73 414.382L1473.78 593.157L1473.78 842.715" stroke="#C9FF58" stroke-miterlimit="10"/>
<path opacity="0.4" d="M1464.69 839.993C1464.69 834.981 1468.76 830.918 1473.78 830.918C1478.79 830.918 1482.86 834.981 1482.86 839.993C1482.86 845.005 1478.79 849.068 1473.78 849.068C1468.76 849.068 1464.69 845.005 1464.69 839.993Z" fill="#C9FF58"/>
<path d="M1610.95 1270.14C1605.95 1270.14 1601.86 1274.23 1601.86 1279.22C1601.86 1284.21 1605.95 1288.29 1610.95 1288.29C1615.94 1288.29 1620.03 1284.21 1620.03 1279.22C1620.03 1274.68 1615.94 1270.14 1610.95 1270.14Z" fill="#C9FF58"/>
</g>
<path d="M41.9999 1291L41.9999 808.906L277.236 573.669L277.236 73" stroke="#C9FF58" stroke-miterlimit="10"/>
<path opacity="0.4" d="M79.1915 1291L79.1916 830.756L313.033 596.914L430.187 596.914L472.492 554.144" stroke="#212518" stroke-miterlimit="10"/>
<path opacity="0.4" d="M469.667 547.17C464.553 547.17 460.369 551.354 460.369 556.468C460.369 561.582 464.553 565.766 469.667 565.766C474.781 565.766 478.965 561.582 478.965 556.468C479.43 551.354 475.246 547.17 469.667 547.17Z" fill="#C9FF58"/>
<path d="M112.298 629C107.184 629 103 633.184 103 638.298C103 643.412 107.184 647.596 112.298 647.596C117.412 647.596 121.596 643.412 121.596 638.298C122.06 633.184 117.876 629 112.298 629Z" fill="#C9FF58"/>
<path d="M1905.31 1611.03L1905.31 1408.02L1867.64 1371.45L1867.64 1103.57L1830.76 1067.74L1830.76 868.715" stroke="#C9FF58" stroke-miterlimit="10"/>
<path d="M1824.32 870.575C1824.32 873.998 1827.21 876.774 1830.76 876.774C1834.32 876.774 1837.2 873.998 1837.2 870.575C1837.2 867.151 1834.32 864.376 1830.76 864.376C1827.21 864.376 1824.32 867.151 1824.32 870.575Z" fill="#C9FF58"/>
<path d="M1814.13 1611.03C1814.13 1611.03 1817.67 1112.86 1814.13 1109.45C1810.59 1106.04 1779 1074.66 1779 1074.66L1779 731.179L1807.37 702.894L1807.37 79.519" stroke="#C9FF58" stroke-miterlimit="10"/>
<path d="M1807.69 576.746C1804.15 576.746 1801.25 573.957 1801.25 570.548C1801.25 567.138 1804.15 564.349 1807.69 564.349C1811.23 564.349 1814.13 567.138 1814.13 570.548C1814.45 573.647 1811.55 576.746 1807.69 576.746Z" fill="#C9FF58"/>
<path d="M533 2155.3L533 1764.75L605.481 1694.39L605.481 1179.04L676.422 1110.13L676.422 727.241" stroke="#C9FF58" stroke-miterlimit="10"/>
<path d="M708.418 2155.3C708.418 2155.3 701.603 1196.93 708.418 1190.37C715.232 1183.81 776 1123.43 776 1123.43L776 462.65L721.427 408.238L721.427 -791" stroke="#C9FF58" stroke-miterlimit="10"/>
<path d="M212.5 80V537L111.5 638" stroke="#C9FF58"/>
<g clip-path="url(#clip2_375_395)">
<path d="M1326.53 1231L1326.53 922.842L1185.16 781.383L1185.16 391.637L1290.16 285.983" stroke="#C9FF58" stroke-miterlimit="10"/>
<path d="M1225.63 1231L1225.63 974.495L1097.76 847.123L1097.76 692.751L1136.47 654.598L1136.47 391.637L1174.6 353.484" stroke="#C9FF58" stroke-miterlimit="10"/>
</g>
</g>
</g>
<defs>
<clipPath id="clip0_375_395">
<rect width="1920" height="1542" fill="white"/>
</clipPath>
<clipPath id="clip1_375_395">
<rect width="1697" height="486" fill="white" transform="matrix(-4.37114e-08 -1 -1 4.37114e-08 1784 1453)"/>
</clipPath>
<clipPath id="clip2_375_395">
<rect width="1171" height="569" fill="white" transform="matrix(4.37114e-08 -1 -1 -4.37114e-08 1516 1231)"/>
</clipPath>
</defs>
</svg>
