<svg width="40" height="40" viewBox="0 0 40 40" fill="none" xmlns="http://www.w3.org/2000/svg">
<path d="M30.9063 24.9531C30.5156 24.2437 31.0125 23.5219 31.8625 22.6281C33.2094 21.2094 34.675 17.9187 33.3125 14.5781C33.3219 14.5594 33.0438 13.9969 33.0531 13.9781L32.4938 13.95C32.3156 13.925 26.1625 13.9125 20.0031 13.9125C13.8438 13.9125 7.69376 13.925 7.51251 13.95C7.51251 13.95 6.68439 14.5594 6.69064 14.5781C5.33126 17.9187 6.79376 21.2094 8.14064 22.6281C8.98751 23.5219 9.48439 24.2437 9.09689 24.9531C8.71876 25.6437 7.59376 25.7437 7.59376 25.7437C7.59376 25.7437 7.85314 26.45 8.47814 26.8312C9.05626 27.1844 9.76876 27.2656 10.2594 27.2781C10.2594 27.2781 12.1813 29.9375 17.2063 29.9375H22.8C27.825 29.9375 29.7469 27.2781 29.7469 27.2781C30.2375 27.2656 30.95 27.1844 31.5281 26.8312C32.1531 26.45 32.4125 25.7437 32.4125 25.7437C32.4125 25.7437 31.2844 25.6437 30.9063 24.9531Z" fill="#C9FF58"/>
<path d="M19.9969 29.9343V26.9843L28.925 26.2781L29.7375 27.2781C29.7375 27.2781 27.8156 29.9375 22.7906 29.9375L19.9969 29.9343Z" fill="url(#paint0_radial_5_2)"/>
<path d="M29.7187 25.9875C28.3812 23.9562 31.3469 23.1968 31.3469 23.1968L31.35 23.2C30.8344 23.8406 30.6 24.4 30.9031 24.9531C31.2812 25.6437 32.4062 25.7437 32.4062 25.7437C32.4062 25.7437 30.8719 27.1062 29.7187 25.9875Z" fill="url(#paint1_radial_5_2)"/>
<path d="M33.3188 14.5781C34.6469 17.8125 33.25 21.1438 31.9406 22.55C31.7594 22.7438 31 23.4906 30.825 24.0875C30.825 24.0875 27.8438 19.9281 26.9531 17.4844C26.7719 16.9906 26.6094 16.4844 26.5875 15.9594C26.5719 15.5656 26.6313 15.0969 26.8594 14.7656C27.1375 14.3563 33.1594 14.2344 33.1594 14.2344L33.3188 14.5781Z" fill="url(#paint2_radial_5_2)"/>
<path d="M6.6875 14.5781C5.3625 17.8125 6.75938 21.1437 8.06563 22.5468C8.24688 22.7406 9.00625 23.4875 9.18125 24.0843C9.18125 24.0843 12.1625 19.925 13.0531 17.4812C13.2344 16.9875 13.3969 16.4812 13.4188 15.9562C13.4344 15.5625 13.375 15.0937 13.1469 14.7625C12.8688 14.3531 12.5438 14.4625 12.0719 14.4625C11.1719 14.4625 7.23125 14.2312 6.925 14.2312C6.92813 14.2343 6.6875 14.5781 6.6875 14.5781Z" fill="url(#paint3_radial_5_2)"/>
<path d="M20.0094 29.9343V26.9843L11.0813 26.2781L10.2688 27.2781C10.2688 27.2781 12.1906 29.9375 17.2156 29.9375L20.0094 29.9343Z" fill="url(#paint4_radial_5_2)"/>
<path d="M10.2906 25.9875C11.6281 23.9562 8.66249 23.1968 8.66249 23.1968L8.65937 23.2C9.17499 23.8406 9.40937 24.4 9.10624 24.9531C8.72812 25.6437 7.60312 25.7437 7.60312 25.7437C7.60312 25.7437 9.13437 27.1062 10.2906 25.9875Z" fill="url(#paint5_radial_5_2)"/>
<path d="M20.0406 29.5875H20C12.0344 29.5968 4.02188 31.9312 4.02188 37.4875V38.7468H35.9813V37.4875C35.9781 32.25 28.0406 29.5875 20.0406 29.5875Z" fill="url(#paint6_linear_5_2)"/>
<path d="M20 28.15H17.1625V31.2687C17.1625 32.6781 18.3188 33.8218 19.7438 33.8218H20.2594C21.6844 33.8218 22.8406 32.6781 22.8406 31.2687V28.15H20Z" fill="#C48E6A"/>
<path d="M28.5406 15.7593H11.4594C9.61877 15.7593 8.11252 17.3656 8.11252 19.325C8.11252 21.2843 9.61877 22.8906 11.4594 22.8906H28.5375C30.3781 22.8906 31.8844 21.2843 31.8844 19.325C31.8844 17.3656 30.3813 15.7593 28.5406 15.7593Z" fill="#C48E6A"/>
<path d="M20 3.45935C14.5625 3.45935 9.52502 9.27498 9.52502 17.6437C9.52502 25.9687 14.7156 30.0843 20 30.0843C25.2844 30.0843 30.475 25.9687 30.475 17.6437C30.475 9.27498 25.4375 3.45935 20 3.45935Z" fill="#E0BB95"/>
<path d="M17.125 15.5687C16.8344 15.1844 16.1656 14.6281 14.8656 14.6281C13.5656 14.6281 12.8938 15.1875 12.6063 15.5687C12.4781 15.7375 12.5094 15.9344 12.6 16.0531C12.6813 16.1625 12.925 16.2656 13.1938 16.175C13.4625 16.0844 13.9875 15.8125 14.8656 15.8062C15.7438 15.8125 16.2688 16.0844 16.5375 16.175C16.8063 16.2656 17.05 16.1656 17.1313 16.0531C17.2188 15.9344 17.2531 15.7375 17.125 15.5687Z" fill="#AB872F"/>
<path d="M27.3969 15.5687C27.1063 15.1844 26.4375 14.6281 25.1375 14.6281C23.8375 14.6281 23.1656 15.1875 22.8781 15.5687C22.75 15.7375 22.7813 15.9344 22.8719 16.0531C22.9531 16.1625 23.1969 16.2656 23.4656 16.175C23.7344 16.0844 24.2594 15.8125 25.1375 15.8062C26.0156 15.8125 26.5406 16.0844 26.8094 16.175C27.0781 16.2656 27.3219 16.1656 27.4031 16.0531C27.4906 15.9344 27.525 15.7375 27.3969 15.5687Z" fill="#AB872F"/>
<path d="M25.1375 19.9719C25.9884 19.9719 26.6781 19.2583 26.6781 18.3781C26.6781 17.4979 25.9884 16.7844 25.1375 16.7844C24.2867 16.7844 23.5969 17.4979 23.5969 18.3781C23.5969 19.2583 24.2867 19.9719 25.1375 19.9719Z" fill="#5D4037"/>
<path d="M14.8625 19.9719C15.7134 19.9719 16.4031 19.2583 16.4031 18.3781C16.4031 17.4979 15.7134 16.7844 14.8625 16.7844C14.0117 16.7844 13.3219 17.4979 13.3219 18.3781C13.3219 19.2583 14.0117 19.9719 14.8625 19.9719Z" fill="#5D4037"/>
<path d="M21.2063 21.2687C21.1719 21.2562 21.1406 21.2468 21.1063 21.2437H18.8969C18.8625 21.2468 18.8281 21.2562 18.7969 21.2687C18.5969 21.35 18.4875 21.5562 18.5813 21.7781C18.675 22 19.1156 22.6187 20.0031 22.6187C20.8906 22.6187 21.3313 21.9968 21.425 21.7781C21.5156 21.5562 21.4063 21.35 21.2063 21.2687Z" fill="#C48E6A"/>
<path d="M22.6313 23.7937C21.6344 24.3844 18.3719 24.3844 17.3782 23.7937C16.8063 23.4531 16.2219 23.975 16.4594 24.4937C16.6938 25.0031 18.475 26.1875 20.0125 26.1875C21.55 26.1875 23.3094 25.0031 23.5438 24.4937C23.7782 23.975 23.2032 23.4531 22.6313 23.7937Z" fill="#6D4C41"/>
<path d="M32.5219 7.84685C31.7594 6.6906 30.05 5.14685 28.5157 5.04373C28.2688 3.56873 26.6907 2.31873 25.1625 1.83435C21.0282 0.524976 18.3375 1.99373 16.8938 2.78435C16.5938 2.94998 14.6532 4.02498 13.2969 3.2531C12.4469 2.76873 12.4625 1.45935 12.4625 1.45935C12.4625 1.45935 9.7969 2.47498 10.7094 5.29998C9.79378 5.33748 8.59378 5.72498 7.9594 7.00935C7.20315 8.5406 7.4719 9.81873 7.69065 10.4312C6.90315 11.1 5.91253 12.5219 6.59065 14.3687C7.10315 15.7594 9.14378 16.4 9.14378 16.4C9.00003 18.9031 9.46565 20.4437 9.71253 21.0687C9.75628 21.1781 9.9094 21.1687 9.93753 21.0562C10.2469 19.8187 11.3032 15.4937 11.1969 14.7406C11.1969 14.7406 14.7438 14.0375 18.125 11.5469C18.8125 11.0406 19.5594 10.6094 20.3532 10.2906C24.6 8.59998 25.4907 11.4844 25.4907 11.4844C25.4907 11.4844 28.4344 10.9187 29.3219 15.0062C29.6563 16.5375 29.8844 18.9906 30.0719 20.7062C30.0844 20.8281 30.25 20.8531 30.3 20.7406C30.5969 20.0594 31.1907 18.7094 31.3313 17.3312C31.3813 16.8469 32.6875 16.2062 33.25 14.125C33.9969 11.35 33.075 8.68123 32.5219 7.84685Z" fill="#C9FF58"/>
<path d="M31.3188 17.3437C31.3688 16.8593 32.675 16.2187 33.2375 14.1375C33.2969 13.9156 33.3469 13.6906 33.3938 13.4656C33.85 10.9375 33.0313 8.61559 32.5219 7.84684C31.8156 6.77809 30.3031 5.38121 28.8656 5.09371C28.7406 5.07809 28.6188 5.06246 28.5031 5.05621C28.5031 5.05621 28.6063 5.72809 28.3344 6.26246C27.9844 6.95621 27.2688 7.12184 27.2688 7.12184C31.0125 10.8656 30.7438 13.9968 31.3188 17.3437Z" fill="url(#paint7_radial_5_2)"/>
<path d="M17.7969 2.30934C17.4563 2.47496 17.1531 2.64059 16.8938 2.78121C16.5938 2.94684 14.6531 4.02184 13.2969 3.24996C12.4625 2.77496 12.4625 1.50621 12.4625 1.46246C12.0781 1.95309 10.9156 5.45621 14.3156 5.69059C15.7813 5.79059 16.6844 4.51246 17.2219 3.43121C17.4125 3.03434 17.7156 2.46246 17.7969 2.30934Z" fill="url(#paint8_radial_5_2)"/>
<path d="M24.7375 1.70938C27.025 2.32813 28.1406 3.49375 28.5125 5.04688C28.6219 5.50313 28.7531 9.75938 20.6281 4.92188C17.6063 3.12188 18.4313 1.99688 18.7844 1.86875C20.1656 1.36875 22.175 1.01563 24.7375 1.70938Z" fill="url(#paint9_radial_5_2)"/>
<path d="M12.45 1.46249C12.4469 1.46561 12.4406 1.46561 12.4313 1.46874H12.4281C12.1375 1.59061 9.85313 2.64999 10.7063 5.29999L13.1375 5.69061C10.9844 3.50936 12.4594 1.45624 12.4594 1.45624C12.4594 1.45624 12.4531 1.45936 12.45 1.46249Z" fill="url(#paint10_radial_5_2)"/>
<path d="M12.2094 5.54061L10.7063 5.29999C10.6469 5.29999 10.4469 5.31874 10.3375 5.33436C9.49065 5.45311 8.49377 5.89061 7.95315 7.00936C7.3719 8.21561 7.38752 9.24999 7.5469 9.94061C7.59377 10.1719 7.68752 10.4344 7.68752 10.4344C7.68752 10.4344 8.43127 9.72811 10.2031 9.68124L12.2094 5.54061Z" fill="url(#paint11_radial_5_2)"/>
<path d="M7.61564 10.4937C6.87501 11.15 5.87814 12.6156 6.61251 14.4344C7.16876 15.8062 9.14064 16.4 9.14064 16.4C9.14064 16.4062 9.53439 16.5219 9.73751 16.5219L10.2 9.6781C9.25314 9.6781 8.34376 9.96248 7.75626 10.3719C7.76564 10.3844 7.61251 10.4844 7.61564 10.4937Z" fill="url(#paint12_radial_5_2)"/>
<defs>
<radialGradient id="paint0_radial_5_2" cx="0" cy="0" r="1" gradientUnits="userSpaceOnUse" gradientTransform="translate(24.5572 25.6718) scale(7.31844 3.59482)">
<stop offset="0.699" stop-color="#C9FF58" stop-opacity="0"/>
<stop offset="1" stop-color="#C9FF58"/>
</radialGradient>
<radialGradient id="paint1_radial_5_2" cx="0" cy="0" r="1" gradientUnits="userSpaceOnUse" gradientTransform="translate(31.7659 24.5827) rotate(154.924) scale(2.1627 1.60442)">
<stop offset="0.418" stop-color="#C9FF58"/>
<stop offset="1" stop-color="#C9FF58" stop-opacity="0"/>
</radialGradient>
<radialGradient id="paint2_radial_5_2" cx="0" cy="0" r="1" gradientUnits="userSpaceOnUse" gradientTransform="translate(26.8307 20.0634) rotate(-94.2783) scale(9.49956 7.91727)">
<stop offset="0.699" stop-color="#C9FF58" stop-opacity="0"/>
<stop offset="1" stop-color="#C9FF58"/>
</radialGradient>
<radialGradient id="paint3_radial_5_2" cx="0" cy="0" r="1" gradientUnits="userSpaceOnUse" gradientTransform="translate(13.2444 19.4623) rotate(-85.7217) scale(9.49956 7.91727)">
<stop offset="0.699" stop-color="#C9FF58" stop-opacity="0"/>
<stop offset="1" stop-color="#C9FF58"/>
</radialGradient>
<radialGradient id="paint4_radial_5_2" cx="0" cy="0" r="1" gradientUnits="userSpaceOnUse" gradientTransform="translate(15.4497 25.6718) rotate(180) scale(7.31844 3.59482)">
<stop offset="0.699" stop-color="#C9FF58" stop-opacity="0"/>
<stop offset="1" stop-color="#C9FF58"/>
</radialGradient>
<radialGradient id="paint5_radial_5_2" cx="0" cy="0" r="1" gradientUnits="userSpaceOnUse" gradientTransform="translate(8.4203 24.6851) rotate(25.0761) scale(2.1627 1.60442)">
<stop offset="0.418" stop-color="#C9FF58"/>
<stop offset="1" stop-color="#C9FF58" stop-opacity="0"/>
</radialGradient>
<linearGradient id="paint6_linear_5_2" x1="20" y1="29.5368" x2="20" y2="38.3456" gradientUnits="userSpaceOnUse">
<stop stop-color="#C9FF58"/>
<stop offset="0.494" stop-color="#C9FF58"/>
<stop offset="1" stop-color="#C9FF58"/>
</linearGradient>
<radialGradient id="paint7_radial_5_2" cx="0" cy="0" r="1" gradientUnits="userSpaceOnUse" gradientTransform="translate(25.6303 13.4537) rotate(72.0851) scale(11.1351 8.26201)">
<stop offset="0.699" stop-color="#C9FF58" stop-opacity="0"/>
<stop offset="1" stop-color="#C9FF58"/>
</radialGradient>
<radialGradient id="paint8_radial_5_2" cx="0" cy="0" r="1" gradientUnits="userSpaceOnUse" gradientTransform="translate(14.7752 1.31294) rotate(28.2026) scale(2.91975 3.46197)">
<stop offset="0.58" stop-color="#C9FF58"/>
<stop offset="1" stop-color="#C9FF58" stop-opacity="0"/>
</radialGradient>
<radialGradient id="paint9_radial_5_2" cx="0" cy="0" r="1" gradientUnits="userSpaceOnUse" gradientTransform="translate(21.3004 6.6154) rotate(-157.19) scale(9.13112 5.13172)">
<stop offset="0.699" stop-color="#C9FF58" stop-opacity="0"/>
<stop offset="1" stop-color="#C9FF58"/>
</radialGradient>
<radialGradient id="paint10_radial_5_2" cx="0" cy="0" r="1" gradientUnits="userSpaceOnUse" gradientTransform="translate(13.6028 3.97663) scale(2.67969 3.27806)">
<stop offset="0.702" stop-color="#C9FF58" stop-opacity="0"/>
<stop offset="1" stop-color="#C9FF58"/>
</radialGradient>
<radialGradient id="paint11_radial_5_2" cx="0" cy="0" r="1" gradientUnits="userSpaceOnUse" gradientTransform="translate(13.2339 8.70678) rotate(-164.942) scale(5.02612 4.70354)">
<stop offset="0.699" stop-color="#C9FF58" stop-opacity="0"/>
<stop offset="1" stop-color="#C9FF58"/>
</radialGradient>
<radialGradient id="paint12_radial_5_2" cx="0" cy="0" r="1" gradientUnits="userSpaceOnUse" gradientTransform="translate(12.0423 13.5596) rotate(7.83355) scale(5.27704 7.41512)">
<stop offset="0.699" stop-color="#C9FF58" stop-opacity="0"/>
<stop offset="1" stop-color="#C9FF58"/>
</radialGradient>
</defs>
</svg>
