
<svg width="113" height="68" viewBox="0 0 113 68" fill="none" xmlns="http://www.w3.org/2000/svg">
    <g clip-path="url(#clip0_963_5062)">
        <mask id="mask0_963_5062" style="mask-type:luminance" maskUnits="userSpaceOnUse" x="0" y="0" width="113" height="68">
            <path d="M113 0H0V68H113V0Z" fill="white"/>
        </mask>
        <g mask="url(#mask0_963_5062)">
            <g filter="url(#filter0_d_963_5062)">
                <path fill-rule="evenodd" clip-rule="evenodd" d="M32.4117 26.8015C33.7627 28.2611 34.5968 30.1793 34.6315 32.2825V32.5358L34.6185 32.7663C34.536 34.7265 33.7584 36.5142 32.5159 37.9065C31.3908 39.1685 29.8834 40.1023 28.1718 40.544C27.4594 40.7291 26.7122 40.8258 25.9389 40.8258H8.6839C7.9107 40.8258 7.1635 40.7291 6.4511 40.544C5.7286 40.3594 5.0426 40.0855 4.4063 39.7358V41.7969C4.4063 43.0136 3.42 44 2.2032 44C0.986399 44 9.91821e-05 43.0136 9.91821e-05 41.7969V32.6814C9.91821e-05 32.6555 0.000499994 32.6297 0.00139999 32.604L0 32.5265V32.2825C0.0348 30.1793 0.8688 28.2611 2.2199 26.8015C3.5622 25.3545 5.4172 24.3575 7.5023 24.0799C7.889 24.0252 8.2843 24 8.6883 24H25.9432C26.3472 24 26.7426 24.0294 27.1292 24.0799C29.2187 24.3575 31.0693 25.3545 32.4117 26.8015ZM4.3504 32.1859C4.4295 30.7498 5.2541 29.5033 6.4554 28.8038C7.107 28.4252 7.8716 28.2065 8.6883 28.2065H25.9432C26.7599 28.2065 27.5202 28.4252 28.1761 28.8038C29.4403 29.5399 30.2874 30.8818 30.2874 32.4129C30.2874 33.9441 29.4403 35.2859 28.1761 36.0221C27.5245 36.4006 26.7599 36.6194 25.9432 36.6194H8.6883C7.8716 36.6194 7.1114 36.4006 6.4554 36.0221C5.3917 35.4027 4.6233 34.3544 4.4063 33.1254V32.6814C4.4063 32.511 4.387 32.3451 4.3504 32.1859ZM55.7429 40.9406C55.8884 40.5486 56.2624 40.2885 56.6805 40.2885H61.5087C61.9316 40.2885 62.3089 40.5546 62.4507 40.9531L62.8857 42.1748C63.0275 42.5733 63.4048 42.8394 63.8278 42.8394H67.0671C67.775 42.8394 68.2588 42.1241 67.9952 41.4671L61.6345 25.6104C61.4824 25.2312 61.1149 24.9827 60.7064 24.9827H57.4543C57.0457 24.9827 56.6782 25.2312 56.5261 25.6104L50.1654 41.4671C49.9019 42.1241 50.3857 42.8394 51.0936 42.8394H54.3428C54.7609 42.8394 55.1349 42.5793 55.2803 42.1873L55.7429 40.9406ZM60.3831 35.1268C60.6148 35.7778 60.132 36.462 59.441 36.462H58.8437C58.1466 36.462 57.6634 35.7667 57.9064 35.1133L58.2117 34.2927C58.5373 33.4176 59.7781 33.4265 60.0911 34.3061L60.3831 35.1268ZM77.232 34.6297C77.232 34.4367 77.288 34.2479 77.393 34.0859L82.274 26.5541C82.705 25.8887 82.228 25.0103 81.435 25.0103H78.162C77.823 25.0103 77.507 25.1821 77.323 25.4667L75.5008 28.2802C75.1067 28.8888 74.2161 28.8888 73.822 28.2802L72.0003 25.4667C71.816 25.1821 71.5 25.0103 71.1609 25.0103H67.888C67.0952 25.0103 66.6177 25.8887 67.0488 26.5541L71.9296 34.0859C72.0345 34.2479 72.0904 34.4367 72.0904 34.6297V41.867C72.0904 42.4193 72.5381 42.867 73.0904 42.867H76.232C76.785 42.867 77.232 42.4193 77.232 41.867V34.6297ZM22.1246 34.9811C22.7436 34.9811 23.2454 34.4815 23.2454 33.8651C23.2454 33.2488 22.7436 32.7491 22.1246 32.7491C21.5056 32.7491 21.0038 33.2488 21.0038 33.8651C21.0038 34.4815 21.5056 34.9811 22.1246 34.9811ZM26.2122 31.1658C26.2122 31.7821 25.7105 32.2817 25.0915 32.2817C24.4725 32.2817 23.9707 31.7821 23.9707 31.1658C23.9707 30.5494 24.4725 30.0498 25.0915 30.0498C25.7105 30.0498 26.2122 30.5494 26.2122 31.1658ZM14.774 32.5157C14.774 33.0348 14.3526 33.4543 13.8313 33.4543H12.9581V34.3238C12.9581 34.8428 12.5368 35.2624 12.0155 35.2624C11.4942 35.2624 11.0728 34.8428 11.0728 34.3238V33.4543H10.1996C9.6783 33.4543 9.2569 33.0348 9.2569 32.5157C9.2569 31.9967 9.6783 31.5771 10.1996 31.5771H11.0728V30.7077C11.0728 30.1886 11.4942 29.769 12.0155 29.769C12.5368 29.769 12.9581 30.1886 12.9581 30.7077V31.5771H13.8313C14.3526 31.5771 14.774 31.9967 14.774 32.5157ZM40.6858 25.9827C40.6858 25.4304 40.2381 24.9827 39.6858 24.9827H36.7078C36.1555 24.9827 35.7078 25.4304 35.7078 25.9827V41.8394C35.7078 42.3917 36.1555 42.8394 36.7078 42.8394H47.3651C47.7629 42.8394 48.1228 42.6037 48.2818 42.2391L49.3229 39.8515C49.611 39.1909 49.1269 38.4518 48.4063 38.4518H41.6858C41.1335 38.4518 40.6858 38.004 40.6858 37.4518V25.9827Z" fill="#C9FF58"/>
            </g>
            <g style="mix-blend-mode:hard-light">
                <path fill-rule="evenodd" clip-rule="evenodd" d="M84.6835 42.9144H97.5125V38.6288H90.4565L97.5125 29.2922V25.0576H85.2005L82.4365 29.2922H91.7395L84.6835 38.6288V42.9144ZM111.42 29.3201L113.333 25.0855H98.5895V42.9422H111.42V38.6566H103.517V35.8505H110.753V32.0241H103.517V29.3201H111.42Z" fill="white"/>
            </g>
        </g>
    </g>
    <defs>
        <filter id="filter0_d_963_5062" x="-4" y="9" width="120.437" height="58" filterUnits="userSpaceOnUse" color-interpolation-filters="sRGB">
            <feFlood flood-opacity="0" result="BackgroundImageFix"/>
            <feColorMatrix in="SourceAlpha" type="matrix" values="0 0 0 0 0 0 0 0 0 0 0 0 0 0 0 0 0 0 127 0" result="hardAlpha"/>
            <feOffset dx="15" dy="4"/>
            <feGaussianBlur stdDeviation="9.5"/>
            <feComposite in2="hardAlpha" operator="out"/>
            <feColorMatrix type="matrix" values="0 0 0 0 0.572549 0 0 0 0 1 0 0 0 0 0.309804 0 0 0 0.24 0"/>
            <feBlend mode="normal" in2="BackgroundImageFix" result="effect1_dropShadow_963_5062"/>
            <feBlend mode="normal" in="SourceGraphic" in2="effect1_dropShadow_963_5062" result="shape"/>
        </filter>
        <clipPath id="clip0_963_5062">
            <rect width="113" height="68" fill="white"/>
        </clipPath>
    </defs>
</svg>
