<svg width="358" height="515" viewBox="0 0 358 515" fill="none" xmlns="http://www.w3.org/2000/svg">
  <path d="M112.92 1L357 1L357 442.5L343.5 449.5L343.5 514L40.5 514L2.18274 492.758L2.18277 12.6832L104 12.6832L112.92 1Z" fill="url(#paint0_linear_25_614)" stroke="#C9FF58"/>
  <path d="M106.376 1L101.5 8.43478L3.68272 8.43479L2.18263 1.00001L106.376 1Z" fill="#C9FF58"/>
  <path d="M0.999999 514L27 514L1 500.193L0.999999 514Z" stroke="#C9FF58"/>
  <path d="M357 448L357 514L348 514L348 452.125L357 448Z" fill="#C9FF58"/>
  <path d="M353.367 389L353.367 391.684L342.895 397.206L342.895 394.574L353.367 389Z" fill="#C9FF58"/>
  <path d="M353.367 394.884L353.367 397.568L342.895 403.09L342.895 400.458L353.367 394.884Z" fill="#C9FF58"/>
  <path d="M353.367 400.768L353.367 403.451L342.895 408.974L342.895 406.342L353.367 400.768Z" fill="#C9FF58"/>
  <path d="M353.367 406.651L353.367 409.335L342.895 414.858L342.895 412.225L353.367 406.651Z" fill="#C9FF58"/>
  <path d="M353.367 412.535L353.367 415.219L342.895 420.741L342.895 418.109L353.367 412.535Z" fill="#C9FF58"/>
  <path d="M353.367 418.419L353.367 421.103L342.895 426.625L342.895 423.993L353.367 418.419Z" fill="#C9FF58"/>
  <path d="M353.367 424.302L353.367 426.986L342.895 432.509L342.895 429.877L353.367 424.302Z" fill="#C9FF58"/>
  <path d="M353.367 430.187L353.367 432.87L342.895 438.393L342.895 435.761L353.367 430.187Z" fill="#C9FF58"/>
  <path d="M353.367 436.07L353.367 438.754L342.895 444.277L342.895 441.644L353.367 436.07Z" fill="#C9FF58"/>
  <defs>
    <linearGradient id="paint0_linear_25_614" x1="490.5" y1="564" x2="59.5" y2="75" gradientUnits="userSpaceOnUse">
      <stop stop-color="#1B1B1B"/>
      <stop offset="1" stop-color="#292929"/>
    </linearGradient>
  </defs>
</svg>
