<!DOCTYPE svg PUBLIC "-//W3C//DTD SVG 1.1//EN" "http://www.w3.org/Graphics/SVG/1.1/DTD/svg11.dtd">
<!-- Uploaded to: SVG Repo, www.svgrepo.com, Transformed by: SVG Repo Mixer Tools -->
<svg height="64px" width="64px" version="1.1" id="Layer_1" xmlns="http://www.w3.org/2000/svg" xmlns:xlink="http://www.w3.org/1999/xlink" viewBox="0 0 511.999 511.999" xml:space="preserve" fill="#000000">
<g id="SVGRepo_bgCarrier" stroke-width="0"/>
<g id="SVGRepo_tracerCarrier" stroke-linecap="round" stroke-linejoin="round"/>
<g id="SVGRepo_iconCarrier"> <circle style="fill:#F4BD64;" cx="256.242" cy="256.242" r="246.811"/> <g> <path style="fill:#4D4D4D;" d="M355.335,427.91c-63.542,36.691-138.95,34.191-198.249,0.021l56.695-98.195 c12.486,7.225,26.987,11.362,42.456,11.362c15.458,0,29.949-4.127,42.424-11.341L355.335,427.91z"/> <path style="fill:#4D4D4D;" d="M213.781,182.753c-25.339,14.67-42.392,42.088-42.392,73.486H57.998 c0-73.371,39.851-137.427,99.088-171.693L213.781,182.753z"/> <path style="fill:#4D4D4D;" d="M454.476,256.239H341.085c0-31.409-17.064-58.837-42.424-73.507l56.674-98.164 C418.866,121.249,454.423,187.804,454.476,256.239z"/> <circle style="fill:#4D4D4D;" cx="256.242" cy="256.242" r="43.818"/> </g> <path d="M152.262,435.65c30.986,17.856,66.27,27.465,102.037,27.788c0.618,0.005,1.237,0.009,1.855,0.009 c36.223,0,71.983-9.603,103.535-27.823c4.393-2.536,5.898-8.154,3.362-12.548l-56.673-98.154c-1.219-2.111-3.226-3.651-5.581-4.28 c-2.353-0.632-4.863-0.299-6.972,0.921c-11.434,6.612-24.515,10.108-37.826,10.108c-13.314,0-26.406-3.502-37.856-10.127 c-2.11-1.221-4.617-1.554-6.972-0.922c-2.355,0.63-4.364,2.169-5.582,4.28l-56.695,98.195c-1.219,2.111-1.549,4.62-0.917,6.974 C148.609,432.426,150.15,434.432,152.262,435.65z M217.128,341.656c12.148,5.506,25.421,8.387,38.87,8.387 c13.443,0,26.704-2.874,38.838-8.369l47.601,82.441c-27.22,14.007-57.416,21.233-87.972,20.952 c-29.541-0.267-58.721-7.482-84.953-20.941L217.128,341.656z"/> <path d="M162.418,246.813h-41.137c-5.074,0-9.186,4.113-9.186,9.186c0,5.073,4.111,9.186,9.186,9.186h49.869 c5.074,0,9.186-4.113,9.186-9.186c0-26.921,14.488-52.033,37.809-65.536c4.387-2.54,5.887-8.152,3.352-12.543l-56.695-98.206 c-1.219-2.111-3.226-3.651-5.581-4.28c-2.353-0.631-4.863-0.299-6.972,0.922c-30.952,17.905-56.913,43.655-75.072,74.468 c-18.712,31.749-28.603,68.119-28.603,105.175c0,5.073,4.111,9.186,9.186,9.186H93.11c5.074,0,9.186-4.113,9.186-9.186 s-4.111-9.186-9.186-9.186H67.169c1.481-30.578,10.336-60.363,25.836-86.661c14.998-25.449,35.831-47.11,60.598-63.097 l47.624,82.495C179.282,195.319,165.076,219.942,162.418,246.813z"/> <path d="M460.736,262.492c1.722-1.724,2.69-4.062,2.687-6.5c-0.027-35.758-9.348-71.117-26.955-102.258 c-18.142-32.084-44.691-58.836-76.778-77.361c-2.111-1.219-4.619-1.547-6.97-0.919c-2.353,0.631-4.36,2.17-5.577,4.28 l-56.673,98.164c-2.535,4.391-1.034,10.005,3.355,12.544c23.34,13.5,37.839,38.62,37.839,65.556c0,5.073,4.111,9.186,9.186,9.186 h113.391C456.676,265.184,459.012,264.215,460.736,262.492z M349.58,246.813c-2.66-26.883-16.877-51.518-38.838-67.285 l47.606-82.459c25.739,16.57,47.101,39.132,62.129,65.708c14.541,25.72,22.886,54.594,24.344,84.037H349.58V246.813z"/> <path d="M255.999,221.368c19.096,0,34.632,15.536,34.632,34.632c0,5.073,4.111,9.186,9.186,9.186c5.074,0,9.186-4.113,9.186-9.186 c0-29.226-23.777-53.003-53.003-53.003s-53.003,23.777-53.003,53.003s23.777,53.003,53.003,53.003 c14.158,0,27.467-5.513,37.48-15.525c3.587-3.587,3.587-9.404,0-12.99c-3.589-3.587-9.404-3.587-12.991,0 c-6.541,6.541-15.237,10.143-24.488,10.143c-19.096,0-34.632-15.536-34.632-34.632C221.367,236.904,236.904,221.368,255.999,221.368 z"/> <path d="M475.69,124.505c-2.61-4.352-8.251-5.761-12.601-3.152c-4.352,2.609-5.762,8.251-3.152,12.603 c22.042,36.75,33.693,78.952,33.693,122.045c0,131.029-106.6,237.628-237.628,237.628S18.371,387.029,18.371,255.999 s106.6-237.628,237.628-237.628c72.772,0,140.55,32.682,185.954,89.665c3.16,3.967,8.939,4.621,12.908,1.46 c3.967-3.161,4.621-8.941,1.459-12.909C407.411,35.205,334.397,0,255.999,0C114.841,0,0,114.841,0,255.999 s114.841,255.999,255.999,255.999s255.999-114.841,255.999-255.999C512,209.579,499.444,164.109,475.69,124.505z"/> </g>
</svg>