<svg width="18" height="16" viewBox="0 0 18 16" fill="none" xmlns="http://www.w3.org/2000/svg">
<g opacity="0.4" clip-path="url(#clip0_34_4375)">
<path d="M17.8407 11.6344C17.4876 12.0781 16.6282 12.3938 16.6282 12.3938L10.2188 14.6938V12.9969L14.9344 11.3156C15.4688 11.125 15.5532 10.8531 15.1157 10.7094C14.6813 10.5656 13.8938 10.6062 13.3594 10.8L10.2188 11.9094V10.1469C10.9438 9.90313 11.6907 9.72188 12.5844 9.62187C13.8626 9.48125 15.4251 9.64062 16.6532 10.1062C18.0344 10.5437 18.1907 11.1906 17.8407 11.6344ZM10.8282 8.74375V4.4C10.8282 3.89062 10.7344 3.42188 10.2563 3.2875C9.89068 3.16875 9.66256 3.50938 9.66256 4.01875V14.8906L6.73131 13.9594V1C7.97818 1.23125 9.79381 1.77813 10.7688 2.10625C13.2532 2.95938 14.0938 4.02187 14.0938 6.4125C14.0938 8.74062 12.6563 9.625 10.8282 8.74375ZM1.35006 12.8188C-0.0686915 12.4188 -0.306192 11.5844 0.340683 11.1062C0.937559 10.6625 1.95631 10.3281 1.95631 10.3281L6.15943 8.83438V10.5375L3.13443 11.6187C2.60006 11.8094 2.51881 12.0813 2.95318 12.225C3.38756 12.3688 4.17506 12.3281 4.70943 12.1344L6.15943 11.6062V13.1313C4.54693 13.4219 2.99068 13.3594 1.35006 12.8188Z" fill="white"/>
</g>
<defs>
<clipPath id="clip0_34_4375">
<rect width="18" height="16" fill="white"/>
</clipPath>
</defs>
</svg>
